<?xml version="1.0" standalone="no"?>
<!DOCTYPE svg PUBLIC "-//W3C//DTD SVG 20010904//EN"
 "http://www.w3.org/TR/2001/REC-SVG-20010904/DTD/svg10.dtd">
<svg version="1.0" xmlns="http://www.w3.org/2000/svg"
 width="992.000000pt" height="992.000000pt" viewBox="0 0 992.000000 992.000000"
 preserveAspectRatio="xMidYMid meet">
<metadata>
Created by potrace 1.11, written by Peter Selinger 2001-2013
</metadata>
<g transform="translate(0.000000,992.000000) scale(0.100000,-0.100000)"
fill="#000000" stroke="none">
<path d="M5330 9600 c-74 -77 -206 -213 -292 -302 -87 -88 -158 -164 -158
-168 0 -4 54 -63 121 -131 103 -106 172 -179 274 -293 11 -12 37 -42 57 -67
21 -24 43 -51 50 -59 7 -8 31 -37 52 -65 22 -27 43 -51 48 -53 4 -2 8 -8 8
-14 0 -5 6 -15 13 -22 35 -35 217 -290 217 -304 0 -6 3 -12 8 -14 9 -4 62 -82
62 -91 0 -5 9 -17 20 -29 11 -12 20 -28 20 -35 0 -7 5 -13 10 -13 6 0 10 -5
10 -11 0 -6 8 -23 19 -37 33 -48 161 -283 161 -297 0 -11 -17 -20 -58 -30 -8
-2 -22 -11 -31 -19 -10 -9 -22 -16 -27 -16 -8 0 -54 -21 -281 -132 -45 -22
-86 -40 -90 -40 -4 0 -21 -9 -36 -20 -15 -11 -33 -21 -40 -22 -7 -1 -75 -33
-152 -71 -77 -37 -143 -68 -147 -67 -5 1 -8 -3 -8 -10 0 -6 -3 -9 -6 -6 -3 4
-42 -12 -87 -35 -45 -23 -84 -42 -87 -42 -6 -1 -148 -69 -300 -144 -63 -31
-119 -58 -125 -60 -26 -8 -140 -67 -143 -73 -2 -5 -9 -8 -16 -8 -7 0 -39 -13
-72 -29 -172 -85 -204 -99 -204 -93 0 4 -4 2 -8 -4 -6 -8 -76 -46 -92 -49 -3
-1 -66 -31 -140 -67 -74 -36 -193 -93 -265 -128 -71 -34 -198 -95 -282 -136
-83 -41 -157 -74 -162 -74 -6 0 -11 -5 -11 -12 0 -6 -3 -9 -6 -5 -3 3 -46 -14
-95 -39 -48 -24 -93 -44 -99 -44 -5 0 -10 -4 -10 -10 0 -5 -3 -9 -7 -8 -5 1
-39 -13 -78 -32 -38 -18 -73 -33 -77 -32 -5 1 -8 -3 -8 -8 0 -6 -9 -10 -20
-10 -11 0 -20 -4 -20 -10 0 -5 -5 -10 -10 -10 -6 0 -59 -23 -118 -52 -59 -28
-109 -52 -112 -53 -3 0 -43 -20 -90 -44 -47 -23 -87 -43 -90 -44 -3 0 -79 -37
-170 -81 -91 -44 -167 -80 -170 -81 -45 -16 -70 -29 -70 -36 0 -5 -6 -9 -14
-9 -7 0 -96 -40 -197 -89 -410 -197 -468 -225 -569 -272 -58 -27 -113 -54
-122 -59 -32 -18 -52 -28 -143 -70 -215 -102 -295 -141 -295 -145 0 -2 17 -12
37 -21 21 -10 46 -24 56 -32 9 -8 17 -12 17 -7 0 4 6 3 12 -3 11 -8 226 -121
403 -211 28 -15 53 -30 57 -36 4 -5 8 -6 8 -2 0 5 13 -1 30 -13 17 -12 30 -18
30 -14 0 3 6 2 12 -4 14 -11 117 -66 248 -132 47 -24 106 -56 132 -72 27 -15
48 -24 48 -20 0 4 4 3 8 -3 4 -5 50 -32 102 -58 52 -27 174 -90 270 -140 96
-50 211 -109 255 -131 44 -23 82 -43 85 -46 3 -3 39 -22 80 -42 67 -33 327
-168 560 -291 47 -24 155 -80 240 -123 85 -43 157 -81 160 -84 3 -3 37 -22 75
-41 39 -19 81 -41 95 -49 14 -8 31 -15 38 -16 7 -1 19 -7 26 -13 7 -6 53 -32
102 -57 49 -25 94 -50 101 -56 7 -6 13 -7 13 -2 0 5 4 4 8 -1 4 -6 54 -34 112
-64 58 -29 146 -74 195 -100 50 -26 142 -74 205 -106 63 -33 117 -63 118 -67
2 -4 10 -8 18 -8 8 0 32 -11 53 -24 21 -14 42 -22 45 -19 3 4 6 0 6 -7 0 -7 3
-10 7 -7 3 4 11 3 17 -2 16 -13 80 -47 286 -154 276 -142 274 -141 282 -152 4
-5 8 -6 8 -2 0 5 15 0 33 -11 33 -21 165 -89 477 -249 102 -53 189 -100 195
-105 6 -6 3 -20 -9 -41 -11 -18 -26 -47 -35 -64 -8 -18 -19 -33 -23 -33 -4 0
-8 -5 -8 -11 0 -11 -188 -301 -244 -375 -17 -23 -38 -52 -46 -64 -8 -13 -26
-37 -40 -54 -14 -17 -38 -48 -53 -69 -16 -20 -38 -48 -50 -62 -12 -13 -33 -39
-47 -57 -14 -18 -41 -51 -60 -73 -19 -22 -39 -45 -45 -51 -20 -24 -242 -259
-317 -337 -43 -43 -78 -82 -78 -86 0 -4 68 -77 151 -162 82 -84 215 -220 293
-301 l143 -148 165 173 c223 231 252 263 327 352 18 22 50 60 71 85 75 88 79
93 125 155 33 45 35 48 70 90 14 17 25 33 25 36 0 3 8 15 18 26 9 11 40 53 67
92 28 40 65 92 83 117 18 24 30 44 26 44 -4 0 2 10 12 22 11 13 36 48 54 78
19 30 37 57 40 60 3 3 12 19 20 35 8 17 19 35 23 40 23 30 74 125 69 129 -3 3
-1 6 5 6 5 0 15 11 21 25 l12 25 92 -47 c51 -26 95 -51 96 -55 2 -5 11 -8 21
-8 9 0 21 -4 26 -9 10 -8 218 -118 392 -206 45 -23 89 -47 97 -55 9 -7 16 -9
16 -5 0 4 6 3 13 -3 6 -6 66 -38 132 -72 169 -88 321 -167 455 -237 63 -33
153 -80 200 -103 47 -24 87 -47 88 -52 2 -4 11 -8 21 -8 9 0 21 -4 26 -9 6 -5
80 -45 165 -89 85 -44 203 -105 261 -135 l105 -54 77 156 c99 202 227 471 227
477 0 2 14 34 32 69 17 36 29 67 27 69 -2 2 -42 23 -89 47 -47 23 -87 45 -90
48 -6 7 -97 50 -108 52 -4 0 -11 4 -17 9 -5 5 -55 32 -110 60 -55 29 -106 57
-112 62 -7 6 -13 7 -13 3 0 -4 -6 -3 -12 3 -7 6 -38 23 -68 39 -30 16 -72 39
-92 51 -21 12 -38 19 -38 16 0 -4 -6 -2 -12 3 -7 6 -71 41 -143 79 -280 146
-433 226 -495 257 -36 17 -71 38 -78 45 -8 7 -17 10 -22 7 -5 -3 -10 -2 -12 3
-1 4 -52 32 -113 62 -60 30 -112 57 -115 60 -3 3 -36 21 -75 40 -38 19 -101
52 -139 72 -38 21 -75 38 -82 38 -8 0 -14 3 -14 8 0 4 -27 20 -60 35 -33 16
-62 33 -66 38 -3 5 -10 6 -16 3 -13 -8 -3 56 10 66 4 3 8 10 9 15 1 6 30 89
64 185 33 96 62 184 65 194 2 11 12 47 23 80 19 57 66 228 77 279 9 38 12 52
14 52 1 0 4 13 14 65 2 14 5 25 6 25 2 0 9 33 15 65 2 14 4 25 5 25 2 0 6 19
14 65 3 19 8 46 11 60 5 22 13 64 30 173 3 15 8 42 11 60 3 17 7 44 9 60 2 15
9 62 15 105 5 42 12 100 15 127 3 28 7 64 10 80 6 48 18 235 19 297 1 32 5 58
9 58 4 0 3 8 -2 19 -6 10 -7 21 -4 25 11 11 10 469 0 484 -6 8 -5 12 2 12 7 0
9 5 6 11 -4 6 -9 52 -11 102 -3 96 -12 221 -19 272 -2 17 -7 57 -10 90 -3 33
-11 92 -16 130 -6 39 -12 86 -15 105 -2 19 -7 51 -10 70 -3 19 -7 46 -9 60 -2
14 -4 25 -5 25 -1 0 -3 14 -5 30 -1 17 -3 30 -4 30 -4 0 -13 58 -12 78 0 9 -3
17 -7 17 -4 0 -7 10 -8 23 -1 22 -11 79 -19 107 -2 8 -7 29 -9 45 -3 17 -20
84 -37 150 -17 66 -33 131 -35 144 -3 13 -9 31 -13 40 -5 9 -9 18 -8 21 0 3
-5 21 -11 40 -6 19 -13 44 -15 55 -2 11 -7 27 -10 35 -7 19 -80 242 -83 255
-2 6 -6 19 -9 30 -5 17 6 26 74 57 43 21 135 65 204 98 69 33 130 60 136 60 6
0 11 5 11 10 0 6 4 10 9 10 5 0 66 27 136 60 70 33 131 60 136 60 5 0 9 5 9
12 0 6 3 8 6 5 4 -4 20 3 35 14 16 11 29 18 29 14 0 -3 30 10 68 29 69 36 295
145 462 223 145 68 165 77 170 85 3 3 14 8 25 10 11 1 26 9 33 16 8 7 17 10
22 7 5 -3 10 -2 12 2 3 7 146 80 166 85 4 1 42 19 84 40 43 21 82 38 88 38 5
0 10 5 10 10 0 6 5 10 11 10 15 0 289 134 289 141 0 4 -8 24 -17 45 -9 22 -17
41 -18 44 -1 3 -9 22 -18 43 -21 47 -46 107 -46 110 0 2 -24 55 -90 202 -15
33 -52 115 -82 182 -30 67 -58 124 -64 126 -5 3 -30 -6 -55 -19 -25 -13 -52
-26 -60 -30 -8 -4 -71 -34 -140 -67 -69 -33 -131 -60 -137 -60 -7 0 -13 -3
-13 -7 0 -9 -67 -40 -85 -40 -8 0 -15 -4 -15 -9 0 -5 -10 -12 -22 -16 -13 -4
-25 -8 -28 -9 -3 -1 -16 -8 -30 -16 -14 -8 -27 -15 -30 -15 -5 -1 -116 -54
-315 -151 -66 -32 -126 -59 -133 -60 -8 -1 -22 -10 -31 -18 -10 -9 -22 -16
-27 -16 -6 0 -36 -13 -67 -29 -31 -16 -59 -26 -62 -23 -3 3 -5 0 -5 -6 0 -7
-4 -12 -9 -12 -6 0 -75 -31 -155 -70 -79 -38 -149 -70 -155 -70 -6 0 -11 -4
-11 -10 0 -5 -5 -10 -11 -10 -6 0 -67 -27 -136 -60 -68 -33 -128 -60 -133 -60
-6 0 -10 -5 -10 -10 0 -6 -3 -9 -7 -8 -7 3 -51 -18 -243 -111 -41 -20 -82 -40
-91 -43 -13 -5 -26 12 -59 75 -56 106 -63 119 -76 137 -6 8 -22 35 -36 60 -13
25 -31 56 -39 70 -107 171 -166 265 -175 282 -6 10 -21 30 -33 44 -11 13 -21
27 -21 29 0 6 -67 100 -167 235 -61 83 -65 88 -83 108 -9 9 -33 40 -55 67 -21
28 -46 57 -54 66 -9 9 -32 36 -51 60 -73 91 -159 183 -365 395 l-140 144 -135
-140z m1046 -2801 c1 -7 21 -70 43 -139 23 -69 41 -133 41 -142 0 -10 5 -18
11 -18 5 0 8 -4 5 -9 -3 -4 3 -39 14 -77 10 -38 21 -80 24 -94 3 -14 11 -45
17 -70 6 -25 11 -53 11 -62 0 -10 2 -18 6 -18 4 0 8 -10 8 -22 2 -26 12 -81
21 -118 3 -14 7 -36 9 -50 1 -14 5 -37 8 -52 15 -70 23 -120 31 -196 3 -26 8
-63 11 -82 3 -19 7 -60 10 -90 3 -30 7 -73 9 -95 30 -296 24 -834 -11 -1125
-3 -25 -7 -57 -8 -71 -9 -77 -18 -146 -22 -164 -3 -11 -7 -38 -10 -60 -3 -22
-8 -51 -10 -65 -3 -14 -7 -35 -9 -47 -2 -12 -6 -36 -11 -55 -4 -18 -8 -40 -9
-48 -4 -30 -27 -137 -50 -225 -9 -33 -18 -73 -21 -90 -4 -16 -10 -38 -15 -47
-5 -10 -7 -18 -5 -18 3 0 1 -12 -5 -27 -6 -16 -13 -38 -15 -50 -2 -13 -31
-103 -64 -200 -33 -98 -61 -182 -63 -188 -1 -5 -7 -18 -13 -28 -10 -17 -17
-15 -100 28 -49 26 -159 84 -244 128 -85 44 -191 100 -235 123 -91 49 -136 71
-149 72 -5 0 -12 4 -15 9 -3 4 -62 37 -131 73 -69 35 -174 90 -235 122 -60 31
-144 75 -185 96 -41 21 -133 69 -205 106 -143 75 -303 159 -524 273 -79 41
-191 99 -250 130 -58 30 -162 85 -231 121 -69 35 -175 91 -237 123 -61 32
-164 86 -230 120 -65 33 -133 69 -150 80 -18 10 -33 15 -33 11 0 -4 -4 -2 -8
3 -4 6 -29 21 -57 35 -212 108 -321 166 -327 175 -4 5 -8 6 -8 1 0 -5 -6 -4
-12 1 -7 6 -71 41 -143 78 -71 37 -134 71 -139 75 -4 5 32 27 80 50 49 24 141
67 204 97 63 30 145 70 183 89 37 19 67 31 67 27 0 -5 4 -3 8 3 8 11 74 44 89
44 5 0 15 6 21 13 7 6 16 12 20 13 8 1 154 70 290 137 50 25 92 43 92 40 0 -2
12 4 28 14 15 10 52 30 82 43 30 14 57 28 58 33 2 4 10 7 17 7 7 0 49 18 94
40 44 22 85 40 90 40 5 0 14 7 21 15 6 8 15 14 18 13 4 -1 48 18 97 42 50 24
92 44 95 45 3 0 59 27 125 59 66 32 163 78 215 103 52 24 103 48 113 53 9 6
25 14 35 20 42 23 295 140 303 140 5 0 9 4 9 10 0 5 3 9 8 8 4 -2 45 16 92 39
221 107 341 163 350 163 6 0 10 5 10 10 0 6 4 10 9 10 11 0 97 39 306 140 83
40 206 99 275 132 69 33 159 76 200 96 41 20 78 35 83 34 4 -1 7 2 7 6 0 5 18
15 41 22 22 8 42 17 45 22 8 13 27 5 30 -13z"/>
</g>
</svg>
