<svg width="29" height="31" viewBox="0 0 29 31" fill="none" xmlns="http://www.w3.org/2000/svg">
<path d="M2.76907 15.9619L18.2698 24.0335C17.4698 25.5555 16.4586 26.9527 15.266 28.18L14.9274 28.5285L15.266 28.8769L15.7242 29.3484L16.0827 29.7175L16.4413 29.3484C17.7509 28.0008 18.8596 26.4667 19.7351 24.7966L26.1543 28.1392L26.6082 28.3756L26.834 27.9163C26.9336 27.7138 27.0306 27.5101 27.1252 27.3053L27.3251 26.8724L26.9022 26.6522L20.4458 23.2902C20.4874 23.1915 20.5282 23.0924 20.5683 22.9928C21.5246 20.6169 22.0166 18.0709 22.0166 15.5C22.0166 13.0245 21.5604 10.572 20.6728 8.27233L27.2163 5.13234L27.6476 4.9254L27.4599 4.48541C27.3783 4.29406 27.2946 4.10349 27.2085 3.91372L26.9976 3.44826L26.5368 3.66935L20.0309 6.7913C19.1146 4.89241 17.9031 3.15587 16.4413 1.65155L16.0827 1.28254L15.7242 1.65155L15.266 2.12305L14.9274 2.4715L15.266 2.81995C16.5982 4.19092 17.704 5.77384 18.5419 7.5058L2.78368 15.0677L1.88234 15.5002L2.76907 15.9619ZM19.1798 8.98878C19.965 11.063 20.3686 13.271 20.3686 15.5C20.3686 17.8559 19.9177 20.1884 19.0419 22.3643C19.0203 22.418 18.9984 22.4716 18.9763 22.525L5.54563 15.5314L19.1798 8.98878Z" fill="#111111" stroke="black"/>
</svg>
